<svg width="74" height="150" viewBox="0 0 74 150" fill="none" xmlns="http://www.w3.org/2000/svg">
<g clip-path="url(#clip0)">
<path d="M24.7901 78.2625C32.6711 80.0228 40.7323 80.8469 48.8065 80.7177C56.5765 80.9531 65.1874 81.8275 72.6211 79.2715C73.0271 79.161 73.3855 78.9201 73.641 78.5858C73.8965 78.2515 74.0349 77.8424 74.0349 77.4217C74.0349 77.001 73.8965 76.5919 73.641 76.2576C73.3855 75.9234 73.0271 75.6824 72.6211 75.5719C65.5238 73.6549 57.7874 74.5293 50.4547 74.2266C42.2138 73.9239 33.6365 72.4441 25.5302 72.915C24.9181 72.989 24.3478 73.2634 23.9081 73.6955C23.4685 74.1276 23.1842 74.6931 23.0997 75.3037C23.0152 75.9143 23.1352 76.5357 23.441 77.0709C23.7468 77.6062 24.2212 78.0252 24.7901 78.2625Z" fill="#231F20"/>
<path d="M13.1853 7.19666C17.0199 4.53971 22.9735 -0.90872 27.9181 -0.000648171C27.9955 0.0189498 28.0683 0.0536845 28.1323 0.101554C28.1963 0.149423 28.2501 0.209479 28.2908 0.278261C28.3314 0.347043 28.3581 0.42319 28.3692 0.502311C28.3802 0.581433 28.3755 0.661964 28.3553 0.739262C27.3462 5.44778 20.1817 8.87828 16.8181 11.5689C12.5799 14.7639 7.46716 20.9523 1.98443 21.3559C1.67238 21.3552 1.36459 21.2834 1.08447 21.1459C0.804356 21.0084 0.559298 20.8088 0.367941 20.5624C0.176586 20.3159 0.0439739 20.029 -0.0198059 19.7236C-0.0835857 19.4182 -0.0768509 19.1022 -0.000116348 18.7998C1.54716 13.7213 9.01443 10.089 13.1853 7.19666Z" fill="#231F20"/>
<path d="M1.81642 124.204C8.54369 124.204 15.271 130.695 20.821 134.294C26.371 137.893 34.5446 142.164 37.0001 148.285C37.3028 148.958 37.0001 150.101 36.0246 150C29.2973 149.26 23.2091 143.274 17.6255 139.574C12.0419 135.875 3.43097 132.848 0.0673256 126.929C-0.101917 126.639 -0.187832 126.309 -0.180904 125.974C-0.173981 125.639 -0.074482 125.312 0.106571 125.03C0.287628 124.748 0.543179 124.522 0.844952 124.376C1.14672 124.23 1.48295 124.171 1.81642 124.204Z" fill="#231F20"/>
</g>
<defs>
<clipPath id="clip0">
<rect width="74" height="150" fill="white" transform="matrix(-1 0 0 1 74 0)"/>
</clipPath>
</defs>
</svg>
