<svg width="256" height="256" viewBox="0 0 256 256" fill="none" xmlns="http://www.w3.org/2000/svg">
<path d="M229.7 75.8496C229.85 78.0996 229.85 80.3996 229.85 82.6496C229.85 152 177.05 231.95 80.55 231.95C50.8 231.95 23.2 223.35 0 208.4C4.2 208.9 8.3 209.05 12.65 209.05C37.2 209.05 59.75 200.75 77.8 186.65C54.75 186.15 35.4 171.05 28.75 150.25C32 150.75 35.25 151.05 38.65 151.05C43.35 151.05 48.05 150.4 52.45 149.25C28.4 144.4 10.4 123.25 10.4 97.7496V97.0996C17.4 101 25.5 103.45 34.1 103.75C19.95 94.3496 10.7 78.2496 10.7 60.0496C10.7 50.2996 13.3 41.3496 17.85 33.5496C43.7 65.4496 82.5 86.2496 126.05 88.5496C125.25 84.6496 124.75 80.5996 124.75 76.5496C124.75 47.6496 148.15 24.0996 177.2 24.0996C192.3 24.0996 205.95 30.4496 215.55 40.6496C227.4 38.3996 238.8 33.9996 248.85 27.9996C244.95 40.1996 236.65 50.3996 225.8 56.8996C236.35 55.7496 246.6 52.8496 256 48.7996C248.85 59.1496 239.9 68.3996 229.7 75.8496Z" fill="#231F20"/>
</svg>
