<svg width="256" height="256" viewBox="0 0 256 256" fill="none" xmlns="http://www.w3.org/2000/svg">
<path d="M250.678 66.0154C247.737 54.9677 239.1 46.2974 228.128 43.3607C208.24 38 128.5 38 128.5 38C128.5 38 48.76 38 28.8717 43.3607C17.9004 46.2974 9.26346 54.9677 6.32223 66.0154C1 86.013 1 127.686 1 127.686C1 127.686 1 169.36 6.32223 189.358C9.26346 200.359 17.9004 208.703 28.8717 211.639C48.76 217 128.5 217 128.5 217C128.5 217 208.24 217 228.128 211.639C239.1 208.703 247.737 200.359 250.678 189.358C256 169.36 256 127.686 256 127.686C256 127.686 256 85.9664 250.678 66.0154ZM102.402 165.538V89.8354L169.024 127.686L102.402 165.538Z" fill="#231F20"/>
</svg>
