<svg width="256" height="256" viewBox="0 0 256 256" fill="none" xmlns="http://www.w3.org/2000/svg">
<path d="M128.05 70.4996C96.2499 70.4996 70.5999 96.1496 70.5999 127.95C70.5999 159.75 96.2499 185.4 128.05 185.4C159.85 185.4 185.5 159.75 185.5 127.95C185.5 96.1496 159.85 70.4996 128.05 70.4996ZM128.05 165.3C107.5 165.3 90.6999 148.55 90.6999 127.95C90.6999 107.35 107.45 90.5996 128.05 90.5996C148.65 90.5996 165.4 107.35 165.4 127.95C165.4 148.55 148.6 165.3 128.05 165.3ZM201.25 68.1496C201.25 75.5996 195.25 81.5496 187.85 81.5496C180.4 81.5496 174.45 75.5496 174.45 68.1496C174.45 60.7496 180.45 54.7496 187.85 54.7496C195.25 54.7496 201.25 60.7496 201.25 68.1496ZM239.3 81.7496C238.45 63.7996 234.35 47.8996 221.2 34.7996C208.1 21.6996 192.2 17.5996 174.25 16.6996C155.75 15.6496 100.3 15.6496 81.7999 16.6996C63.8999 17.5496 47.9999 21.6496 34.8499 34.7496C21.6999 47.8496 17.6499 63.7496 16.7499 81.6996C15.6999 100.2 15.6999 155.65 16.7499 174.15C17.5999 192.1 21.6999 208 34.8499 221.1C47.9999 234.2 63.8499 238.3 81.7999 239.2C100.3 240.25 155.75 240.25 174.25 239.2C192.2 238.35 208.1 234.25 221.2 221.1C234.3 208 238.4 192.1 239.3 174.15C240.35 155.65 240.35 100.25 239.3 81.7496ZM215.4 194C211.5 203.8 203.95 211.35 194.1 215.3C179.35 221.15 144.35 219.8 128.05 219.8C111.75 219.8 76.6999 221.1 61.9999 215.3C52.1999 211.4 44.6499 203.85 40.6999 194C34.8499 179.25 36.1999 144.25 36.1999 127.95C36.1999 111.65 34.8999 76.5996 40.6999 61.8996C44.5999 52.0996 52.1499 44.5496 61.9999 40.5996C76.7499 34.7496 111.75 36.0996 128.05 36.0996C144.35 36.0996 179.4 34.7996 194.1 40.5996C203.9 44.4996 211.45 52.0496 215.4 61.8996C221.25 76.6496 219.9 111.65 219.9 127.95C219.9 144.25 221.25 179.3 215.4 194Z" fill="#231F20"/>
</svg>
