<svg width="74" height="150" viewBox="0 0 74 150" fill="none" xmlns="http://www.w3.org/2000/svg">
<g clip-path="url(#clip0)">
<path d="M49.2099 78.2625C41.3289 80.0228 33.2677 80.8469 25.1935 80.7177C17.4235 80.9531 8.81257 81.8275 1.37894 79.2715C0.972921 79.161 0.614526 78.9201 0.35902 78.5858C0.103514 78.2515 -0.0349121 77.8424 -0.0349121 77.4217C-0.0349121 77.001 0.103514 76.5919 0.35902 76.2576C0.614526 75.9234 0.972921 75.6824 1.37894 75.5719C8.47621 73.6549 16.2126 74.5293 23.5453 74.2266C31.7862 73.9239 40.3635 72.4441 48.4698 72.915C49.0819 72.989 49.6522 73.2634 50.0919 73.6955C50.5315 74.1276 50.8158 74.6931 50.9003 75.3037C50.9848 75.9143 50.8648 76.5357 50.559 77.0709C50.2532 77.6062 49.7788 78.0252 49.2099 78.2625Z" fill="#231F20"/>
<path d="M60.8147 7.19666C56.9801 4.53971 51.0265 -0.90872 46.0819 -0.000648171C46.0045 0.0189498 45.9317 0.0536845 45.8677 0.101554C45.8037 0.149423 45.7499 0.209479 45.7092 0.278261C45.6686 0.347043 45.6419 0.42319 45.6308 0.502311C45.6198 0.581433 45.6245 0.661964 45.6447 0.739262C46.6538 5.44778 53.8183 8.87828 57.1819 11.5689C61.4201 14.7639 66.5328 20.9523 72.0156 21.3559C72.3276 21.3552 72.6354 21.2834 72.9155 21.1459C73.1956 21.0084 73.4407 20.8088 73.6321 20.5624C73.8234 20.3159 73.956 20.029 74.0198 19.7236C74.0836 19.4182 74.0769 19.1022 74.0001 18.7998C72.4528 13.7213 64.9856 10.089 60.8147 7.19666Z" fill="#231F20"/>
<path d="M72.1836 124.204C65.4563 124.204 58.729 130.695 53.179 134.294C47.629 137.893 39.4554 142.164 36.9999 148.285C36.6972 148.958 36.9999 150.101 37.9754 150C44.7027 149.26 50.7909 143.274 56.3745 139.574C61.9581 135.875 70.569 132.848 73.9327 126.929C74.1019 126.639 74.1878 126.309 74.1809 125.974C74.174 125.639 74.0745 125.312 73.8934 125.03C73.7124 124.748 73.4568 124.522 73.155 124.376C72.8533 124.23 72.517 124.171 72.1836 124.204Z" fill="#231F20"/>
</g>
<defs>
<clipPath id="clip0">
<rect width="74" height="150" fill="white"/>
</clipPath>
</defs>
</svg>
