<svg width="256" height="256" viewBox="0 0 256 256" fill="none" xmlns="http://www.w3.org/2000/svg">
<path d="M66.15 240H19.7V90.45H66.15V240ZM42.9 70.05C28.05 70.05 16 57.75 16 42.9C16 28.05 28.05 16 42.9 16C57.75 16 69.8 28.05 69.8 42.9C69.8 57.75 57.75 70.05 42.9 70.05ZM239.95 240H193.6V167.2C193.6 149.85 193.25 127.6 169.45 127.6C145.3 127.6 141.6 146.45 141.6 165.95V240H95.2V90.45H139.75V110.85H140.4C146.6 99.1 161.75 86.7 184.35 86.7C231.35 86.7 240 117.65 240 157.85V240H239.95Z" fill="#231F20"/>
</svg>
